<?xml version="1.0" encoding="UTF-8" standalone="no"?>
<!-- Created with Inkscape (http://www.inkscape.org/) -->

<svg
   xmlns:dc="http://purl.org/dc/elements/1.1/"
   xmlns:cc="http://creativecommons.org/ns#"
   xmlns:rdf="http://www.w3.org/1999/02/22-rdf-syntax-ns#"
   xmlns:svg="http://www.w3.org/2000/svg"
   xmlns="http://www.w3.org/2000/svg"
   xmlns:sodipodi="http://sodipodi.sourceforge.net/DTD/sodipodi-0.dtd"
   xmlns:inkscape="http://www.inkscape.org/namespaces/inkscape"
   width="300mm"
   height="300mm"
   viewBox="0 0 300 300"
   version="1.1"
   id="svg8"
   inkscape:version="0.92.5 (2060ec1f9f, 2020-04-08)"
   sodipodi:docname="background.svg">
  <defs
     id="defs2">
    <inkscape:perspective
       id="perspective5302"
       inkscape:persp3d-origin="372.04725 : 350.78738 : 1"
       inkscape:vp_z="744.09449 : 526.18107 : 1"
       inkscape:vp_y="0 : 999.99996 : 0"
       inkscape:vp_x="0 : 526.18107 : 1"
       sodipodi:type="inkscape:persp3d" />
  </defs>
  <sodipodi:namedview
     id="base"
     pagecolor="#ffffff"
     bordercolor="#666666"
     borderopacity="1.0"
     inkscape:pageopacity="0.0"
     inkscape:pageshadow="2"
     inkscape:zoom="0.7"
     inkscape:cx="680.22968"
     inkscape:cy="558.0171"
     inkscape:document-units="mm"
     inkscape:current-layer="layer1"
     showgrid="false"
     inkscape:window-width="1848"
     inkscape:window-height="1016"
     inkscape:window-x="72"
     inkscape:window-y="27"
     inkscape:window-maximized="1"
     width="300mm" />
  <metadata
     id="metadata5">
    <rdf:RDF>
      <cc:Work
         rdf:about="">
        <dc:format>image/svg+xml</dc:format>
        <dc:type
           rdf:resource="http://purl.org/dc/dcmitype/StillImage" />
        <dc:title></dc:title>
      </cc:Work>
    </rdf:RDF>
  </metadata>
  <g
     inkscape:label="Calque 1"
     inkscape:groupmode="layer"
     id="layer1"
     transform="translate(0,3)">
    <g
       id="g3879"
       transform="matrix(0.19211438,0,0,0.19211438,116.58419,28.894488)"
       style="fill:#7ab5c8;fill-opacity:1">
      <path
         id="path3861"
         d="m 457.95,485.47 h -2.37 l -0.076,-60.415 -10.103,53.644 c 8.861,7.224 7.625,17.615 7.733,18.126 0,1.048 -0.117,2.068 -0.328,3.054 h 11.662 c 1.687,0 3.054,-1.367 3.054,-3.054 v -1.782 c 0.001,-5.288 -4.285,-9.573 -9.572,-9.573 z"
         inkscape:connector-curvature="0"
         style="fill:#7ab5c8;fill-opacity:1" />
      <path
         id="path3863"
         d="m 417.213,339.626 c 1.526,-2.062 2.955,-3.99 4.302,-5.804 L 228.569,259.967 c -0.397,4.706 -1.865,9.393 -4.508,13.69 -0.521,0.847 -1.079,1.656 -1.665,2.435 l 174.02,66.611 z"
         inkscape:connector-curvature="0"
         style="fill:#7ab5c8;fill-opacity:1" />
      <g
         id="g3867"
         style="fill:#7ab5c8;fill-opacity:1">
        <path
           id="path3865"
           d="m 347.37,442.674 c -2.566,3.55 -5.614,7.275 -8.894,10.88 l 2.549,40.766 c 0.195,3.122 2.783,5.558 5.91,5.558 h 16.512 c 1.687,0 3.055,-1.367 3.055,-3.054 v -1.782 c 0,-5.166 -4.095,-9.364 -9.214,-9.554 l 8.388,-45.759 c 0,0 -9.971,-1.235 -14.538,-1.808 -1.17,1.681 -2.43,3.266 -3.768,4.753 z"
           inkscape:connector-curvature="0"
           style="fill:#7ab5c8;fill-opacity:1" />
      </g>
      <path
         id="path3869"
         d="m 510.446,340.287 -7.302,-4.47 c -3.046,-1.865 -5.382,-4.653 -6.848,-7.909 -3.534,-7.846 -10.538,-13.735 -19.09,-15.767 l -4.307,-1.023 c -2.487,-0.949 -4.174,-3.269 -4.332,-5.926 -0.134,-2.256 -0.185,-4.634 -0.085,-6.974 0.11,-2.593 0.405,-5.137 0.981,-7.409 0.326,-1.288 -0.831,-2.493 -2.134,-2.234 -3.969,0.789 -8.161,4.803 -12.104,10.081 -9.508,12.725 -18.938,34.632 -18.938,34.632 l 44.3,30.807 c 3.547,0 8.764,0.52 12.344,1.826 1.597,0.583 3.25,0.866 4.887,0.866 4.002,0 7.906,-1.69 10.65,-4.814 0,10e-4 5.833,-18.235 1.978,-21.686 z"
         inkscape:connector-curvature="0"
         style="fill:#7ab5c8;fill-opacity:1" />
      <path
         id="path3871"
         d="m 424.449,351.831 36.317,25.063 c 1.637,1.13 3.875,0.754 5.053,-0.849 l 3.87,-5.266 c 1.243,-1.692 0.821,-4.079 -0.927,-5.241 l -36.36,-24.175 c -1.536,-1.022 -3.592,-0.747 -4.806,0.642 l -3.827,4.378 c -1.446,1.654 -1.128,4.199 0.68,5.448 z"
         inkscape:connector-curvature="0"
         style="fill:#7ab5c8;fill-opacity:1" />
      <path
         id="path3873"
         d="m 214.206,264.947 c 5.674,-9.222 2.797,-21.298 -6.425,-26.971 l -61.941,-38.107 -15.477,-44.434 20.705,34.066 61.396,37.771 23.955,6.086 c 10.502,2.644 21.155,-3.729 23.797,-14.227 2.643,-10.5 -3.727,-21.155 -14.227,-23.797 l -57.128,-14.436 -26.299,-30.295 0.532,-7.951 c 1.07,-15.995 -11.03,-29.829 -27.025,-30.898 l -51.647,-3.453 c -15.995,-1.069 -29.828,11.03 -30.898,27.024 l -9.656,148.61 c 0,0 2.793,56.228 4.157,83.663 L 2.188,466.45 c -5.466,11.788 -0.341,25.774 11.447,31.24 11.787,5.465 25.774,0.341 31.24,-11.447 l 48.278,-104.12 c 1.605,-3.46 2.343,-7.259 2.154,-11.068 l -4.185,-83.96 10.606,0.709 26.032,77.413 9.88,113.175 c 1.125,12.887 12.478,22.524 25.483,21.391 12.944,-1.13 22.521,-12.539 21.391,-25.483 L 174.39,358.332 c -0.162,-1.856 -0.544,-3.687 -1.138,-5.453 l -20.741,-61.679 0.647,0.043 1.75,-26.175 c -12.978,-7.984 -31.921,-19.638 -45.955,-28.272 -5.006,-3.08 -8.066,-8.225 -8.771,-13.632 l -6.847,-54.833 17.773,51.027 c 1.485,4.263 4.396,7.884 8.241,10.249 l 67.886,41.765 c 9.182,5.649 21.272,2.838 26.971,-6.425 z"
         inkscape:connector-curvature="0"
         style="fill:#7ab5c8;fill-opacity:1" />
      <path
         id="path3875"
         d="M 117.057,97.712 C 140.735,99.295 161.212,81.384 162.796,57.706 164.379,34.029 146.468,13.551 122.791,11.968 99.114,10.385 78.636,28.296 77.053,51.973 75.469,75.651 93.38,96.128 117.057,97.712 Z"
         inkscape:connector-curvature="0"
         style="fill:#7ab5c8;fill-opacity:1" />
      <path
         id="path3877"
         d="m 451.053,408.16 c 2.878,-7.115 5.659,-14.673 8.095,-21.601 -49.285,-34.284 -48.669,-34.3 -48.669,-34.3 0,0 -82.815,10.85 -91.921,15.462 -4.153,0.858 -14.441,5.306 -21.928,11.163 -6.147,4.729 -11.289,10.487 -15.304,16.7 -0.002,0.003 -0.004,0.006 -0.006,0.009 -4.06,6.2 -7.002,12.859 -9.166,19.61 -2.052,6.452 -3.619,14.024 -4.004,20.815 -0.115,2.003 1.322,3.859 3.453,4.127 1.998,0.251 3.837,-1.162 4.328,-3.115 l 0.023,-0.092 c 1.458,-5.786 3.848,-11.886 6.76,-17.377 2.328,-4.368 5.02,-8.472 8.083,-12.125 -0.676,8.139 0.204,11.601 0.746,21.623 0.787,12.592 2.984,47.729 4.08,65.264 v 0.003 c 0.195,3.126 2.784,5.552 5.916,5.552 h 16.506 c 1.687,0 3.054,-1.368 3.054,-3.054 v -1.782 c 0,-5.166 -4.095,-9.364 -9.214,-9.554 0.738,-3.919 5.923,-31.45 5.923,-31.45 15.947,-8.442 30.181,-30.057 30.653,-48.171 0.081,-3.126 2.258,-5.909 5.358,-6.32 3.805,-0.505 7.053,2.442 7.053,6.147 0,7.625 -1.427,14.856 -3.966,21.344 17.898,2.235 55.44,6.531 55.44,6.531 l 3.798,60.754 c 0.195,3.12 2.78,5.556 5.906,5.558 18.211,0.012 16.961,0.073 17.705,-0.242 2.187,-0.925 1.865,-3.087 1.865,-4.602 -0.003,-5.059 -4.003,-9.355 -9.213,-9.549 0,0 0,0 -10e-4,0 l 12.639,-67.11 c 2.449,-3.038 4.488,-6.461 6.008,-10.218 z"
         inkscape:connector-curvature="0"
         style="fill:#7ab5c8;fill-opacity:1" />
    </g>
    <g
       id="g4146"
       transform="matrix(0.09992727,0,0,0.09992727,10.748443,23.457222)"
       style="fill:#7ab5c8;fill-opacity:1">
      <g
         id="g4114"
         style="fill:#7ab5c8;fill-opacity:1"
         transform="translate(38.522761,77.045521)">
        <g
           id="g4112"
           style="fill:#7ab5c8;fill-opacity:1">
          <g
             id="g4110"
             style="fill:#7ab5c8;fill-opacity:1">
            <path
               id="path4106"
               d="m 311.7,315.5 c 23.9,-18.6 37.1,-27.8 39.8,-27.8 l 65.6,-4 12.9,11.9 c 8.6,8 18.9,14.9 30.8,20.9 11.9,6 21.2,6.3 27.8,1 9.3,-5.3 15.3,-12.6 17.9,-21.9 -2.6,-6.6 -13.3,-15.3 -31.8,-25.9 -5.3,-4 -11.9,-9.9 -19.9,-17.9 -8,-8 -15.9,-13.3 -23.9,-15.9 -9.3,-1.3 -22.2,-2.3 -38.8,-3 -16.6,-0.7 -26.9,-1 -30.8,-1 -2.7,-1.3 -15.3,1.7 -37.8,9 -22.5,7.3 -41.8,14.9 -57.7,22.9 -9.3,5.3 -9.3,4.6 0,-2 35.8,-26.5 57,-44.4 63.7,-53.7 19.9,-5.3 33.8,-9.9 41.8,-13.9 8,-4 15.9,-7.3 23.9,-9.9 25.2,-4 39.1,-6.6 41.8,-8 9.3,-2.7 15.9,-8.6 19.9,-17.9 4,-9.3 2,-17.2 -6,-23.9 -5.3,-2.7 -10.6,-3.6 -15.9,-3 -5.3,0.7 -13.9,2 -25.9,4 -11.9,2 -21.2,3 -27.8,3 -17.2,1.3 -44.4,12.6 -81.6,33.8 -13.3,6.6 -28.2,16.6 -44.8,29.8 -16.6,13.3 -26.2,20.6 -28.8,21.9 -17.2,13.3 0,-11.9 51.7,-75.6 2.7,-2.7 5.6,-6.3 9,-10.9 3.3,-4.7 6.3,-8.3 9,-10.9 4,-6.6 5.6,-13.3 5,-19.9 -0.7,-6.6 -3,-12.3 -7,-16.9 -4,-4.7 -7.3,-6.3 -9.9,-5 -2.7,1.3 -7.3,6.3 -13.9,14.9 -6.6,8.6 -11.9,14.3 -15.9,16.9 -1.3,0 -3.6,2.3 -7,7 -3.4,4.7 -7.6,10.3 -12.9,16.9 -5.3,6.6 -9.9,11.9 -13.9,15.9 -1.3,2.7 -5.3,7 -11.9,12.9 -6.6,6 -11.9,11.6 -15.9,16.9 -5.3,8 -11.3,18.2 -17.9,30.8 -6.6,12.6 -11.9,21.5 -15.9,26.9 -2.7,2.7 -6.6,7 -11.9,12.9 -5.3,6 -9.3,11.6 -11.9,16.9 -13.3,26.5 -25.2,57.7 -35.8,93.5 C 88.5,403 75.9,430.9 61.3,450.7 56,460 40.1,471.3 13.6,484.5 3,573.3 17.6,645 57.4,699.3 c 29.2,-17.2 52.7,-28.5 70.6,-33.8 17.9,-5.3 39.5,-8 64.6,-8 6.6,1.3 15.3,3.3 25.9,6 10.6,2.6 19.2,4 25.9,4 1.3,-1.3 17.2,-6 47.7,-13.9 9.3,-4 21.5,-8.6 36.8,-13.9 15.3,-5.3 27.5,-9.9 36.8,-13.9 5.3,-1.3 13.6,-3.3 24.9,-6 11.3,-2.7 20.9,-5.3 28.8,-8 2.7,-1.3 6,-2 9.9,-2 2.7,-1.3 4.6,-3 6,-5 1.3,-2 3.3,-4.3 6,-7 5.3,-6.6 9.9,-16.6 13.9,-29.8 4,-13.3 7.3,-23.2 9.9,-29.8 9.3,-18.6 14.3,-31.2 14.9,-37.8 0.7,-6.6 -1.7,-10.6 -7,-11.9 5.3,-17.2 7.3,-35.1 6,-53.7 0,-5.3 0.3,-10.3 1,-14.9 0.7,-4.6 0,-9.3 -2,-13.9 -2,-4.6 -5.6,-8.3 -10.9,-10.9 -51.7,-41.1 -80.2,-61.7 -85.5,-61.7 -53,1.3 -87.5,7.3 -103.4,17.9 -3.2,1.6 -5.1,2.7 -5.9,3.3 0,0.3 0,0.5 0,0.7 -0.5,0 -0.5,-0.2 0,-0.7 0.2,-1.6 0.8,-4.7 1.9,-9.3 1,-1.3 13.6,-11.2 37.5,-29.8 z m -38.8,127.3 c 0.7,-1.3 1.7,-3 3,-5 1.3,-2 3,-3.6 5,-5 2,-1.3 4.3,-2.7 7,-4 6.6,-5.3 16.2,-9.6 28.8,-12.9 12.6,-3.3 28.8,-10.3 48.7,-20.9 l 2,2 c 1.3,1.3 3.6,3.3 7,6 3.3,2.7 7.3,5.6 11.9,9 4.6,3.3 9.9,6.3 15.9,9 6,2.6 12.3,5.3 18.9,8 l 3,10.9 c 2,7.3 5.3,15.9 9.9,25.9 4.6,10 9.6,17.6 14.9,22.9 -13.3,9.3 -23.5,19.2 -30.8,29.8 -7.3,10.6 -11.9,18.6 -13.9,23.9 -2,5.3 -3.6,8 -5,8 -34.5,-5.3 -64.3,-3.3 -89.5,6 -6.6,-13.3 -15.3,-24.5 -25.9,-33.8 -10.6,-9.3 -17.9,-16.6 -21.9,-21.9 -4,-5.3 -4.6,-12.6 -2,-21.9 1.3,-2.7 2.7,-6.6 4,-11.9 1.3,-5.3 2.3,-8.6 3,-9.9 0.7,-1.3 1.7,-3.6 3,-7 1.4,-3.5 2.4,-5.9 3,-7.2 z"
               inkscape:connector-curvature="0"
               style="fill:#7ab5c8;fill-opacity:1" />
            <path
               id="path4108"
               d="m 988,432.9 c -1.3,-11.9 -3,-23.2 -5,-33.8 -2,-10.6 -4.3,-20.2 -7,-28.8 -2.6,-8.6 -5.6,-16.9 -9,-24.9 -3.3,-8 -6.3,-14.6 -9,-19.9 -2.6,-5.3 -5.3,-9.6 -8,-12.9 -2.6,-3.3 -4.6,-6 -6,-8 l -2,-3 c -27.8,15.9 -50.7,26.9 -68.6,32.8 -17.9,6 -40.1,8.3 -66.6,7 -5.3,0 -13.3,-1.3 -23.9,-4 -10.6,-2.7 -19.9,-4 -27.8,-4 -4,0 -19.9,5.3 -47.7,15.9 -9.3,2.7 -21.5,6.6 -36.8,11.9 -15.3,5.3 -27.5,9.9 -36.8,13.9 -5.3,1.3 -13.6,3 -24.9,5 -11.3,2 -20.2,4.3 -26.9,7 -2.6,1.3 -5.6,2.7 -9,4 -3.3,1.3 -6,3 -8,5 -2,2 -3.6,4.3 -5,7 -5.3,6.6 -9.9,16.2 -13.9,28.8 -4,12.6 -8,22.9 -11.9,30.8 -9.3,18.6 -13.9,31.2 -13.9,37.8 0,6.6 2.7,10.6 8,11.9 -6.6,17.2 -9.3,35.1 -8,53.7 1.3,5.3 1.7,10.3 1,14.9 -0.7,4.6 0,9 2,12.9 2,4 5.6,8 10.9,11.9 53,39.8 81.6,60.3 85.5,61.7 54.4,-2.6 88.8,-9.3 103.4,-19.9 l 6,-2 c 1.3,-1.3 0.7,2 -2,9.9 -1.3,1.3 -13.9,10.9 -37.8,28.8 -23.9,17.9 -37.8,26.9 -41.8,26.9 l -63.7,6 -13.9,-12.9 c -9.3,-8.6 -19.6,-15.6 -30.8,-20.9 -11.3,-5.3 -20.9,-5.3 -28.8,0 -8,5.3 -13.9,12.6 -17.9,21.9 2.7,5.3 13.9,14.6 33.8,27.8 5.3,2.7 11.9,8 19.9,15.9 8,8 15.9,13.3 23.9,15.9 9.3,1.3 22.2,2 38.8,2 16.6,0 26.2,0.7 28.8,2 4,0 17.2,-3.6 39.8,-10.9 22.5,-7.3 41.8,-14.9 57.7,-22.9 9.3,-5.3 9.3,-4 0,4 -35.8,26.5 -57,43.8 -63.6,51.7 -19.9,6.6 -33.8,11.9 -41.8,15.9 -8,4 -15.9,6.6 -23.9,8 -25.2,5.3 -39.1,8.6 -41.8,9.9 -9.3,2.7 -15.9,8.3 -19.9,16.9 -4,8.6 -2.6,16.2 4,22.9 6.6,2.7 12.3,3.6 16.9,3 4.6,-0.7 12.9,-2 24.9,-4 11.9,-2 21.9,-3 29.8,-3 14.6,0 41.8,-10.6 81.5,-31.8 9.3,-5.3 18.2,-11.3 26.9,-17.9 8.6,-6.6 17.2,-13.6 25.9,-20.9 8.6,-7.3 14.9,-12.3 18.9,-14.9 18.6,-11.9 1.3,13.9 -51.7,77.6 -1.3,2.7 -3.7,6 -7,9.9 -3.3,4 -7,8 -10.9,11.9 -4,6.6 -5.3,13.3 -4,19.9 1.3,6.6 3.6,12.3 7,16.9 3.3,4.7 7,5.6 10.9,3 2.7,-1.3 7,-6 12.9,-13.9 6,-8 10.9,-13.3 14.9,-15.9 1.3,-1.3 3.6,-4 7,-8 3.3,-4 7.6,-9.3 12.9,-15.9 5.3,-6.6 9.9,-11.9 13.9,-15.9 l 14.9,-14.9 c 6,-6 10.3,-10.9 12.9,-14.9 6.6,-8 13.3,-18.2 19.9,-30.8 6.6,-12.6 11.9,-22.2 15.9,-28.8 1.3,-1.3 4.6,-5 9.9,-10.9 5.3,-6 9.9,-11.6 13.9,-16.9 13.3,-26.5 24.9,-58 34.8,-94.5 9.9,-36.5 22.2,-64.6 36.8,-84.5 6.6,-8 22.5,-18.6 47.7,-31.8 2.7,-14.6 4,-29.2 4,-43.8 0,-14.6 -0.2,-27.9 -1.5,-39.8 z m -246.6,87.5 c -6.6,19.9 -10.9,31.8 -12.9,35.8 -2,4 -7,9.3 -14.9,15.9 -8,5.3 -18.2,9.6 -30.8,12.9 -12.6,3.3 -28.2,10.3 -46.7,20.9 l -6,-6 c -4,-4 -10.9,-9 -20.9,-14.9 -9.9,-6 -19.6,-10.3 -28.8,-12.9 v -2 c 0,-1.3 -0.3,-2.6 -1,-4 -0.7,-1.3 -1.3,-3.3 -2,-6 -0.7,-2.6 -1.7,-5.3 -3,-8 -1.3,-2.6 -2.3,-5.3 -3,-8 -0.7,-2.7 -1.7,-5.6 -3,-9 -1.3,-3.3 -3,-6.3 -5,-9 l -6,-8 c -2,-2.6 -3.6,-4.6 -5,-6 11.9,-9.3 21.9,-19.2 29.8,-29.8 8,-10.6 12.9,-18.6 14.9,-23.9 2,-5.3 3.6,-8 5,-8 35.8,4 65,1.3 87.5,-8 8,14.6 16.9,26.5 26.8,35.8 9.9,9.3 17.2,16.6 21.9,21.9 4.7,5.7 5.7,12.3 3.1,20.3 z"
               inkscape:connector-curvature="0"
               style="fill:#7ab5c8;fill-opacity:1" />
          </g>
        </g>
      </g>
      <g
         id="g4116"
         style="fill:#7ab5c8;fill-opacity:1" />
      <g
         id="g4118"
         style="fill:#7ab5c8;fill-opacity:1" />
      <g
         id="g4120"
         style="fill:#7ab5c8;fill-opacity:1" />
      <g
         id="g4122"
         style="fill:#7ab5c8;fill-opacity:1" />
      <g
         id="g4124"
         style="fill:#7ab5c8;fill-opacity:1" />
      <g
         id="g4126"
         style="fill:#7ab5c8;fill-opacity:1" />
      <g
         id="g4128"
         style="fill:#7ab5c8;fill-opacity:1" />
      <g
         id="g4130"
         style="fill:#7ab5c8;fill-opacity:1" />
      <g
         id="g4132"
         style="fill:#7ab5c8;fill-opacity:1" />
      <g
         id="g4134"
         style="fill:#7ab5c8;fill-opacity:1" />
      <g
         id="g4136"
         style="fill:#7ab5c8;fill-opacity:1" />
      <g
         id="g4138"
         style="fill:#7ab5c8;fill-opacity:1" />
      <g
         id="g4140"
         style="fill:#7ab5c8;fill-opacity:1" />
      <g
         id="g4142"
         style="fill:#7ab5c8;fill-opacity:1" />
      <g
         id="g4144"
         style="fill:#7ab5c8;fill-opacity:1" />
    </g>
    <path
       id="path4175"
       d="m 230.71685,115.97206 c 0,0 0,-0.002 0,-0.006 z m 10.67712,-53.185935 c 3.9508,-2.64844 8.45819,-4.015511 13.03568,-3.953426 12.47168,0.168956 22.61817,10.448861 22.61817,22.915606 0,4.661212 -1.46159,9.206275 -4.22662,13.144237 -0.98023,1.396103 -0.64326,3.322556 0.75286,4.302763 0.5399,0.379157 1.15889,0.561066 1.77217,0.561066 0.97218,0 1.92937,-0.457914 2.53061,-1.314108 3.49891,-4.983032 5.34844,-10.755726 5.34844,-16.693958 0,-7.70191 -2.98186,-14.961667 -8.39626,-20.441694 -5.40865,-5.474318 -12.62364,-8.546496 -20.31552,-8.65077 -5.83416,-0.08011 -11.56235,1.649548 -16.55916,4.999124 -1.41694,0.949782 -1.79561,2.868516 -0.84583,4.285461 0.94976,1.416956 2.86866,1.795483 4.28546,0.845699 z m 51.89162,68.033775 c -0.60308,0.60306 -1.39349,0.9047 -2.18404,0.9047 -0.79057,0 -1.58098,-0.30164 -2.18406,-0.9047 L 267.3716,109.27397 c -2.61539,3.23562 -4.57611,7.05576 -5.72852,11.20007 -0.17573,0.6318 -0.398,1.24847 -0.6604,1.83333 -2.57183,5.7293 -8.24519,9.41691 -14.47162,9.41723 -0.0326,0 -0.0643,0 -0.0966,-3.2e-4 -8.5362,-0.0523 -15.56783,-7.22378 -15.69755,-15.75222 0.0149,-5.37857 4.38383,-9.88395 9.76193,-9.88395 0.88509,0 1.71348,-0.34748 2.33247,-0.97835 0.58146,-0.59257 0.89309,-1.36398 0.87781,-2.17184 -0.0171,-0.90671 -0.43164,-1.75688 -1.13664,-2.33291 -3.20321,-2.616932 -5.04035,-6.476296 -5.04035,-10.588934 v -8.792232 c 0,-0.02057 0.0524,-1.151333 0.11697,-1.692332 l -5.20867,-5.208674 c -0.77035,2.235007 -1.19381,4.58769 -1.2409,6.957822 -0.0334,1.6846 -1.40955,3.027415 -3.08691,3.027415 -0.0209,0 -0.0417,-1.35e-4 -0.0625,-5.72e-4 -1.70544,-0.03393 -3.06061,-1.443977 -3.0268,-3.149588 0.0794,-3.996491 1.00121,-7.953624 2.67732,-11.574868 L 216.02339,57.925913 c -1.20629,-1.206306 -1.20629,-3.161958 0,-4.368096 1.20631,-1.206148 3.16193,-1.206295 4.36808,0 l 72.89406,72.894053 c 1.20632,1.20617 1.20632,3.16194 0,4.3681 z M 262.98266,104.88506 243.68951,85.591927 v 4.424149 c 0,2.250444 1.01002,4.366206 2.77105,5.804947 2.11161,1.725207 3.35251,4.276037 3.40456,6.998747 0.0474,2.47995 -0.89155,4.82956 -2.64426,6.61609 -1.76414,1.79841 -4.22154,2.82974 -6.74208,2.82974 -1.98112,0 -3.57907,1.72535 -3.58448,3.70646 0.0928,5.18307 4.3647,9.54295 9.55778,9.57491 0.0194,0 0.0395,1.5e-4 0.0586,1.5e-4 3.79683,0 7.26038,-2.2591 8.83593,-5.76926 0.13567,-0.30256 0.25172,-0.62532 0.34455,-0.95908 1.43889,-5.17377 3.93812,-9.93692 7.29141,-13.93372 z m -32.26581,11.08252 c -1.7e-4,-0.002 -1.7e-4,-0.006 0,0 z m 38.68526,-27.966905 c 0.87181,-2.03349 1.31382,-4.189254 1.31382,-6.407417 0,-4.392802 -1.70066,-8.53325 -4.78864,-11.658727 -3.08439,-3.121794 -7.19909,-4.873863 -11.58567,-4.933331 -2.4875,-0.03213 -4.89379,0.470409 -7.14671,1.498512 -1.55194,0.708091 -2.23592,2.540324 -1.52768,4.092248 0.7081,1.551937 2.54018,2.235782 4.09226,1.527849 1.41588,-0.646027 2.93169,-0.963232 4.49843,-0.941604 5.66859,0.07685 10.28053,4.748915 10.28053,10.415053 0,1.376643 -0.27381,2.713435 -0.81403,3.973323 -0.67229,1.567857 0.0538,3.383719 1.62174,4.05597 0.39688,0.170191 0.80956,0.250647 1.21572,0.250647 1.19796,-1.46e-4 2.33816,-0.701585 2.84023,-1.872523 z"
       inkscape:connector-curvature="0"
       style="fill:#7ab5c8;fill-opacity:1;stroke-width:0.15443656" />
    <g
       id="g4255"
       transform="matrix(0.26732675,0,0,0.26732675,176.23911,151.30408)"
       style="fill:#7ab5c8;fill-opacity:1">
      <g
         id="g4189"
         style="fill:#7ab5c8;fill-opacity:1">
	<g
   id="g4187"
   style="fill:#7ab5c8;fill-opacity:1">
		<path
   id="path4185"
   d="M 449.771,470.475 416.382,325.79 C 412.66,310.9 399.335,300.503 383.988,300.503 h -64.876 c -9.178,-15.069 -21.144,-28.282 -35.291,-38.91 v -94.647 c 0,-25.164 -26.951,-40.553 -48.323,-29.868 l -66.778,33.389 c -11.385,5.69 -18.344,17.135 -18.344,29.868 v 42.705 c -0.207,0.071 -0.417,0.094 -0.622,0.174 -53.773,21.003 -88.521,71.886 -88.521,129.632 0,76.713 62.409,139.122 139.122,139.122 77.23,0 142.093,-63.95 138.875,-144.687 h 18.691 l 27.063,119.4 c 4.459,17.802 22.381,28.848 40.498,24.292 17.85,-4.462 28.746,-22.629 24.289,-40.498 z m -249.418,8.104 c -58.301,0 -105.732,-47.432 -105.732,-105.732 0,-39.568 21.583,-74.727 55.754,-92.997 v 42.913 c 0,18.412 14.866,33.389 33.278,33.389 18.412,0 33.389,-14.977 33.389,-33.389 v -54.647 c 0.826,0.292 1.658,0.574 2.549,0.738 50.116,9.205 86.495,52.942 86.495,103.994 -0.001,58.299 -47.432,105.731 -105.733,105.731 z"
   inkscape:connector-curvature="0"
   style="fill:#7ab5c8;fill-opacity:1" />

	</g>

</g>
      <g
         id="g4195"
         style="fill:#7ab5c8;fill-opacity:1">
	<g
   id="g4193"
   style="fill:#7ab5c8;fill-opacity:1">
		<path
   id="path4191"
   d="m 256.002,0 c -27.617,0 -50.084,22.466 -50.084,50.084 0,27.618 22.466,50.084 50.084,50.084 27.618,0 50.084,-22.466 50.084,-50.084 C 306.086,22.466 283.619,0 256.002,0 Z"
   inkscape:connector-curvature="0"
   style="fill:#7ab5c8;fill-opacity:1" />

	</g>

</g>
      <g
         id="g4197"
         style="fill:#7ab5c8;fill-opacity:1">
</g>
      <g
         id="g4199"
         style="fill:#7ab5c8;fill-opacity:1">
</g>
      <g
         id="g4201"
         style="fill:#7ab5c8;fill-opacity:1">
</g>
      <g
         id="g4203"
         style="fill:#7ab5c8;fill-opacity:1">
</g>
      <g
         id="g4205"
         style="fill:#7ab5c8;fill-opacity:1">
</g>
      <g
         id="g4207"
         style="fill:#7ab5c8;fill-opacity:1">
</g>
      <g
         id="g4209"
         style="fill:#7ab5c8;fill-opacity:1">
</g>
      <g
         id="g4211"
         style="fill:#7ab5c8;fill-opacity:1">
</g>
      <g
         id="g4213"
         style="fill:#7ab5c8;fill-opacity:1">
</g>
      <g
         id="g4215"
         style="fill:#7ab5c8;fill-opacity:1">
</g>
      <g
         id="g4217"
         style="fill:#7ab5c8;fill-opacity:1">
</g>
      <g
         id="g4219"
         style="fill:#7ab5c8;fill-opacity:1">
</g>
      <g
         id="g4221"
         style="fill:#7ab5c8;fill-opacity:1">
</g>
      <g
         id="g4223"
         style="fill:#7ab5c8;fill-opacity:1">
</g>
      <g
         id="g4225"
         style="fill:#7ab5c8;fill-opacity:1">
</g>
    </g>
    <g
       id="g4305"
       transform="matrix(0.24646789,0,0,0.24646789,84.257216,134.83772)"
       style="fill:#7ab5c8;fill-opacity:1">
      <circle
         id="ellipse4301"
         transform="matrix(0.632,-0.775,0.775,0.632,76.156,254.358)"
         cy="47.026001"
         cx="305.78799"
         r="47.02"
         style="fill:#7ab5c8;fill-opacity:1" />
      <path
         id="path4303"
         d="m 380.049,181.091 51.025,-68.666 c 6.895,-9.279 5.554,-22.543 -3.472,-29.766 -9.478,-7.584 -23.274,-5.743 -30.453,3.92 l -42.045,56.58 -40.641,-13.897 20.756,2.691 c -3.032,-10.244 -11.788,-18.305 -23.057,-19.892 l -60.024,-8.908 c -10.335,-1.534 -20.884,0.522 -29.888,5.824 l -71.452,42.083 c -6.979,4.092 -11.042,11.782 -10.489,19.854 l 5.867,87.495 c 0.791,11.535 10.435,20.745 21.991,20.364 12.132,-0.4 21.415,-10.766 20.592,-22.773 l -4.998,-74.83 28.037,-16.438 -16.544,117.453 -5.231,72.685 -92.225,15.91 c -13.927,2.402 -23.269,15.639 -20.866,29.566 2.402,13.926 15.638,23.269 29.566,20.866 l 112.047,-19.33 c 11.633,-2.006 20.382,-11.71 21.18,-23.487 l 5.286,-78.057 23.705,3.892 35.351,74.992 c 2.223,4.717 5.705,8.431 9.852,10.948 l -11.138,47.279 c -1.48,6.282 -0.773,12.952 1.99,18.783 l 13.382,28.241 c 7.965,16.81 24.903,27.527 43.506,27.527 h 32.502 c 5.376,0 10.071,-4.057 10.418,-9.422 0.38,-5.879 -4.276,-10.766 -10.072,-10.766 H 361.66 c -10.802,0 -20.638,-6.223 -25.263,-15.985 l -13.382,-28.24 c -0.811,-1.711 -1.018,-3.668 -0.585,-5.511 l 11.565,-49.089 c 2.62,-0.723 5.192,-1.874 7.62,-3.522 10.501,-7.126 13.928,-21.065 8.517,-32.545 l -33.641,-71.365 13.651,-98.666 -29.479,-17.274 55.373,18.935 c 8.826,3.017 18.515,-0.06 24.013,-7.459 z"
         inkscape:connector-curvature="0"
         style="fill:#7ab5c8;fill-opacity:1" />
    </g>
    <g
       id="g4323"
       transform="matrix(0.20578929,0,0,0.20578929,-2.0001284,119.5518)"
       style="fill:#7ab5c8;fill-opacity:1">
      <path
         id="path4317"
         d="M 457.049,497.108 288.155,271.301 c -0.559,1.231 -1.192,2.444 -1.919,3.626 -2.647,4.303 -6.136,7.773 -10.123,10.328 L 442.634,507.89 c 1.768,2.363 4.474,3.61 7.214,3.61 1.875,0 3.767,-0.584 5.384,-1.793 3.981,-2.978 4.794,-8.618 1.817,-12.599 z"
         inkscape:connector-curvature="0"
         style="fill:#7ab5c8;fill-opacity:1" />
      <path
         id="path4319"
         d="m 269.265,238.471 -64.573,-39.726 -16.135,-46.323 21.584,35.514 64.004,39.376 35.652,8.973 c 10.923,2.752 22.049,-3.867 24.808,-14.831 2.755,-10.946 -3.885,-22.053 -14.832,-24.809 l -70.235,-17.677 -27.417,-31.582 0.554,-8.289 c 1.115,-16.674 -11.498,-31.096 -28.173,-32.21 l -53.841,-3.6 c -16.674,-1.115 -31.095,11.499 -32.21,28.173 L 98.388,286.383 c 0,0 2.921,58.825 4.333,87.217 L 54.939,476.651 c -5.698,12.288 -0.355,26.869 11.933,32.566 12.286,5.698 26.869,0.356 32.567,-11.933 L 149.768,388.74 c 1.673,-3.607 2.443,-7.566 2.245,-11.538 l -4.363,-87.527 11.056,0.739 27.138,80.702 10.299,117.982 c 1.179,13.506 13.086,23.481 26.565,22.3 13.494,-1.178 23.478,-13.071 22.3,-26.565 L 234.454,363.937 c -0.169,-1.935 -0.567,-3.843 -1.187,-5.685 l -21.622,-64.299 2.499,-27.241 -43.39,-26.694 c -1.834,-1.611 -12.093,-4.963 -13.662,-16.991 l -7.138,-57.162 18.528,53.195 c 1.548,4.444 4.583,8.219 8.591,10.685 l 70.771,43.539 c 9.572,5.888 22.176,2.958 28.117,-6.698 5.917,-9.612 2.918,-22.2 -6.696,-28.115 z"
         inkscape:connector-curvature="0"
         style="fill:#7ab5c8;fill-opacity:1" />
      <path
         id="path4321"
         d="m 174.688,89.488 c 24.683,1.651 46.031,-17.021 47.682,-41.705 1.65,-24.684 -17.021,-46.031 -41.705,-47.682 -24.683,-1.65 -46.031,17.021 -47.682,41.705 -1.651,24.684 17.021,46.031 41.705,47.682 z"
         inkscape:connector-curvature="0"
         style="fill:#7ab5c8;fill-opacity:1" />
    </g>
    <g
       id="g6669"
       style="fill:#7ab5c8;fill-opacity:1"
       transform="matrix(1.0004938,0,0,1.0004938,137.49051,292.09056)">
      <path
         inkscape:connector-curvature="0"
         d="m -73.363235,-33.722435 c 6.439662,0 11.628577,5.222719 11.628577,11.628579 0,6.42276 -5.188915,11.645479 -11.628577,11.645479 h -3.042362 v -23.274058 z m 1.183139,33.44906246 c 12.051128,0 21.854287,-9.78625746 21.854287,-21.82048346 0,-12.084933 -9.701746,-21.85429 -21.752874,-21.85429 h -0.135218 -13.369483 v 43.69167446 h 13.403288"
         style="fill:#7ab5c8;fill-opacity:1;fill-rule:nonzero;stroke:none;stroke-width:16.90200233"
         id="path3642-7" />
      <path
         inkscape:connector-curvature="0"
         id="path3646-5"
         d="m -102.04919,-43.95809 -31.37018,43.70844419 h 14.04565 l 3.68453,-5.78052559 h 16.023314 v 5.78052559 h 9.566341 V -43.95809 Z m 2.442223,13.16974 v 15.651241 h -10.073803 z"
         style="fill:#7ab5c8;fill-opacity:1;fill-rule:nonzero;stroke:none;stroke-width:16.90200233" />
      <path
         inkscape:connector-curvature="0"
         d="m -24.736303,-43.990197 h -1.38597 -2.60291 -1.38596 c 6.06782,6.034015 9.56653,14.299094 9.56653,22.885312 0,7.622804 -2.73812,14.9075657 -7.589,20.68804946 h 1.38597 2.36628 1.40286 c 4.31002,-5.93260076 6.727,-13.20046346 6.727,-20.68804946 0,-8.4341 -3.07617,-16.547061 -8.4848,-22.885312"
         style="fill:#7ab5c8;fill-opacity:1;fill-rule:nonzero;stroke:none;stroke-width:16.90200233"
         id="path3654-5" />
      <path
         inkscape:connector-curvature="0"
         d="m -35.729373,-43.990197 h -1.385964 -2.60291 -1.385965 c 6.06782,6.034015 9.566529,14.299094 9.566529,22.885312 0,7.622804 -2.73812,14.9075657 -7.588993,20.68804946 h 1.385964 2.36628 1.369063 c 4.343816,-5.93260076 6.760796,-13.20046346 6.760796,-20.68804946 0,-8.4341 -3.07616,-16.547061 -8.4848,-22.885312"
         style="fill:#7ab5c8;fill-opacity:1;fill-rule:nonzero;stroke:none;stroke-width:16.90200233"
         id="path3658-6" />
      <path
         inkscape:connector-curvature="0"
         d="m -46.755966,-43.990197 h -1.352161 -2.636713 -1.352158 c 6.067819,6.034015 9.532728,14.299094 9.532728,22.885312 0,7.622804 -2.738125,14.9075657 -7.555195,20.68804946 h 1.385964 2.332477 1.402865 c 4.343816,-5.93260076 6.726997,-13.20046346 6.726997,-20.68804946 0,-8.4341 -3.042359,-16.547061 -8.484804,-22.885312"
         style="fill:#7ab5c8;fill-opacity:1;fill-rule:nonzero;stroke:none;stroke-width:16.90200233"
         id="path3662-2" />
    </g>
  </g>
</svg>
